<svg width="24" height="22" viewBox="0 0 24 22" fill="none" xmlns="http://www.w3.org/2000/svg">
<g clip-path="url(#clip0_5212_19782)">
<path d="M13.3329 8H14.0454C14.9663 9.59583 16.6913 10.6667 18.6663 10.6667C19.1246 10.6667 19.5746 10.6083 19.9996 10.5V20C19.9996 20.7375 19.4038 21.3333 18.6663 21.3333C17.9288 21.3333 17.3329 20.7375 17.3329 20V14.1333L11.6663 18.6667H13.9996C14.7371 18.6667 15.3329 19.2625 15.3329 20C15.3329 20.7375 14.7371 21.3333 13.9996 21.3333H7.99959C5.79126 21.3333 3.99959 19.5417 3.99959 17.3333V8.02083C3.99959 7.35 3.49959 6.77917 2.83293 6.69583L2.50376 6.65417C1.77459 6.5625 1.25376 5.89583 1.34543 5.16667C1.43709 4.4375 2.10376 3.91667 2.83293 4.00833L3.16209 4.05C5.16209 4.3 6.66626 6 6.66626 8.02083V11.575C8.09959 9.42083 10.5496 8 13.3329 8ZM19.9996 9.10417C19.5829 9.25 19.1329 9.33333 18.6663 9.33333C17.4829 9.33333 16.4163 8.81667 15.6829 8C15.5288 7.82917 15.3913 7.64583 15.2704 7.45C14.8871 6.83333 14.6663 6.10833 14.6663 5.33333V0.445833C14.6663 0.2 14.8621 0.00416667 15.1079 0H15.1163C15.2538 0 15.3829 0.0666667 15.4663 0.175V0.179167L15.9996 0.8875L17.1329 2.4L17.3329 2.66667H19.9996L20.1996 2.4L21.3329 0.8875L21.8663 0.179167V0.175C21.9496 0.0666667 22.0788 0 22.2163 0H22.2246C22.4704 0.00416667 22.6663 0.2 22.6663 0.445833V5.33333C22.6663 6.05417 22.4746 6.73333 22.1413 7.31667C21.6704 8.14167 20.9079 8.78333 19.9996 9.10417ZM17.9996 5.33333C17.9996 5.15652 17.9294 4.98695 17.8043 4.86193C17.6793 4.7369 17.5097 4.66667 17.3329 4.66667C17.1561 4.66667 16.9865 4.7369 16.8615 4.86193C16.7365 4.98695 16.6663 5.15652 16.6663 5.33333C16.6663 5.51014 16.7365 5.67971 16.8615 5.80474C16.9865 5.92976 17.1561 6 17.3329 6C17.5097 6 17.6793 5.92976 17.8043 5.80474C17.9294 5.67971 17.9996 5.51014 17.9996 5.33333ZM19.9996 6C20.1764 6 20.346 5.92976 20.471 5.80474C20.596 5.67971 20.6663 5.51014 20.6663 5.33333C20.6663 5.15652 20.596 4.98695 20.471 4.86193C20.346 4.7369 20.1764 4.66667 19.9996 4.66667C19.8228 4.66667 19.6532 4.7369 19.5282 4.86193C19.4032 4.98695 19.3329 5.15652 19.3329 5.33333C19.3329 5.51014 19.4032 5.67971 19.5282 5.80474C19.6532 5.92976 19.8228 6 19.9996 6Z" fill="#FF6C31"/>
</g>
<defs>
<clipPath id="clip0_5212_19782">
<rect width="24" height="21.3333" fill="white"/>
</clipPath>
</defs>
</svg>
