<svg width="24" height="24" viewBox="0 0 24 24" fill="none" xmlns="http://www.w3.org/2000/svg">
<path fill-rule="evenodd" clip-rule="evenodd" d="M18.8069 9.71422C19.4532 9.43136 19.9434 8.95222 20.4033 8.47136C20.9274 7.92321 20.9343 7.23621 20.9343 6.87664C20.9343 6.30493 20.3973 5.85407 19.5243 5.83307C19.0619 5.82193 18.7794 5.93721 18.3942 6.21793C18.1182 6.4185 17.4714 7.07507 17.7599 7.61207C17.7749 7.63993 17.7993 7.67379 17.834 7.71364C17.8682 7.75332 17.8873 7.80379 17.8879 7.85616C17.8885 7.90853 17.8707 7.95944 17.8374 7.99993C17.8042 8.04042 17.7564 8.06634 17.7043 8.07219C17.6522 8.07803 17.5999 8.06333 17.5584 8.03121L17.513 7.99607C16.943 7.56064 16.6327 7.39864 16.6327 6.75364C16.6327 5.53993 18.2343 4.37379 19.781 4.41107C21.326 4.44836 22.529 5.56393 22.529 6.86464C22.529 7.57607 22.0756 8.58536 21.3342 9.36107C20.8601 9.85722 20.2878 10.249 19.6537 10.5114C19.694 10.5778 19.7356 10.6494 19.778 10.7269C20.198 11.4924 20.1432 11.5854 20.1967 12.5415C20.2499 13.4981 19.967 15.2081 20.0754 16.0506C20.1843 16.8928 20.7282 16.9866 20.8477 17.5935C20.9236 17.9779 21.1117 19.6468 21.4122 22.5992C21.4183 22.659 21.4119 22.7194 21.3933 22.7765C21.3746 22.8336 21.3442 22.8861 21.304 22.9307C21.2637 22.9753 21.2146 23.011 21.1597 23.0354C21.1048 23.0598 21.0454 23.0724 20.9853 23.0724H20.1037C19.9903 23.0724 19.8815 23.0273 19.8013 22.9471C19.7211 22.8669 19.676 22.7581 19.676 22.6446V22.4316C19.676 22.2966 19.7394 22.1694 19.8474 22.0888L19.9837 21.9864C20.0479 21.9383 20.0972 21.8732 20.1263 21.7986C20.1553 21.7239 20.1628 21.6425 20.1479 21.5638C19.9134 20.3158 19.7073 19.5645 19.5299 19.3099C19.3987 19.1214 18.8064 18.8141 18.0427 18.2184C17.906 18.1112 17.66 17.8841 17.3056 17.5361C17.2771 17.5079 17.2412 17.4882 17.2021 17.4794C17.163 17.4706 17.1222 17.4729 17.0843 17.4861C17.0464 17.4993 17.013 17.5229 16.9879 17.5542C16.9628 17.5854 16.9469 17.6231 16.9422 17.6629C16.8779 18.1785 16.7973 18.6131 16.7017 18.9666C16.586 19.3926 16.2303 20.5039 15.635 22.2996C15.6067 22.3852 15.5521 22.4597 15.479 22.5125C15.4059 22.5653 15.318 22.5937 15.2279 22.5936H14.1059C14.0043 22.5935 13.9069 22.5531 13.8351 22.4813C13.7633 22.4095 13.7228 22.3121 13.7227 22.2105V22.1848C13.7226 22.0843 13.7578 21.9871 13.8221 21.9099C13.8864 21.8327 13.9758 21.7806 14.0746 21.7626L14.5559 21.6744C14.9013 20.4126 15.0517 19.4886 15.008 18.9019C14.9772 18.4871 14.6969 18.0045 14.4144 17.1645C14.3557 16.9896 14.273 16.6331 14.1667 16.0931C14.1611 16.0644 14.1496 16.0372 14.133 16.0131C14.1165 15.989 14.0951 15.9685 14.0704 15.953C14.0456 15.9375 14.0179 15.9272 13.989 15.9227C13.9601 15.9183 13.9306 15.9198 13.9023 15.9272L11.0467 16.6669C11.0153 16.675 10.9861 16.6902 10.9614 16.7112C10.9367 16.7322 10.9171 16.7586 10.904 16.7883C10.891 16.818 10.8849 16.8503 10.8861 16.8827C10.8874 16.9152 10.896 16.9469 10.9113 16.9755L10.9786 17.1024C11.1072 17.3432 11.174 17.6124 11.174 17.8854V21.8968C11.174 22.0301 11.1119 22.1561 11.006 22.2375L10.4073 22.6961C10.3323 22.7536 10.2404 22.7848 10.1459 22.7848H9.71602C9.60232 22.7847 9.49331 22.7394 9.41295 22.659C9.33259 22.5785 9.28745 22.4695 9.28745 22.3558V22.1372C9.28745 21.9816 9.37102 21.8381 9.50688 21.7622L9.81545 21.5899C9.88754 21.5498 9.94651 21.4897 9.98528 21.4169C10.024 21.344 10.041 21.2616 10.034 21.1794C9.98516 20.6004 9.92516 20.1598 9.85316 19.8581C9.77945 19.5469 9.60031 18.9915 9.31616 18.1926C9.30447 18.1598 9.28493 18.1302 9.25924 18.1066C9.23355 18.083 9.20248 18.066 9.16873 18.0572C9.13498 18.0483 9.09958 18.0478 9.06559 18.0557C9.03161 18.0637 9.00008 18.0798 8.97373 18.1026L8.89016 18.1746C8.68059 18.3559 8.42473 18.4746 8.15131 18.5188L5.47188 18.9474C5.43374 18.9535 5.39796 18.9698 5.36833 18.9945C5.33869 19.0193 5.3163 19.0516 5.30353 19.0881C5.29075 19.1245 5.28806 19.1637 5.29574 19.2016C5.30342 19.2394 5.32119 19.2745 5.34716 19.3031L5.63216 19.6168C5.70416 19.6956 5.74359 19.7985 5.74359 19.9052V20.1855C5.74356 20.2429 5.73202 20.2996 5.70966 20.3525C5.68731 20.4053 5.65458 20.4531 5.61342 20.493C5.57227 20.533 5.52352 20.5643 5.47005 20.5851C5.41659 20.6059 5.3595 20.6157 5.30216 20.6141L4.95073 20.6038C4.88682 20.6019 4.82414 20.5858 4.76726 20.5566C4.71039 20.5274 4.66077 20.4858 4.62202 20.4349L4.17888 19.8546C4.12188 19.7799 4.09102 19.6885 4.09102 19.5945V18.7425C4.09102 18.5938 4.16816 18.4554 4.29459 18.3774C6.12502 17.2459 7.11759 16.6206 7.27231 16.5002C7.43259 16.3759 7.49945 16.1681 7.47288 15.8771C7.17459 14.9912 6.69673 14.6775 6.48202 14.1529C6.26773 13.6288 5.86916 11.9972 5.67202 11.3706C5.27559 10.1106 4.92759 9.44421 4.83373 9.24493C4.62288 8.7975 4.25088 8.73407 3.85788 8.57979C3.46488 8.42507 2.71788 8.44864 2.23188 8.02221C1.74631 7.59536 1.79088 7.14964 1.67773 6.6645V6.07093C1.67773 5.83393 1.87016 5.64193 2.10716 5.64193H3.27116C3.42845 5.64193 3.57288 5.55621 3.64831 5.41779C3.78116 5.17393 3.99331 4.94079 4.28516 4.71879C4.67363 4.42524 5.11624 4.21129 5.58759 4.08922C5.48045 2.75464 5.48045 2.00079 5.58759 1.82764C5.69473 1.6545 5.99259 1.92536 6.48202 2.64021C6.55188 1.7985 6.68816 1.48993 6.89131 1.7145C7.08073 1.9245 7.40773 2.68736 7.87188 4.00307C7.93273 4.1745 8.02059 4.3365 8.13202 4.48093C8.32702 4.73293 8.50273 5.03464 8.66002 5.38521C8.95873 6.05207 9.30759 7.79379 9.92516 8.6505C10.5423 9.50722 10.9027 9.5775 11.7942 9.73607C12.3864 9.8415 14.4286 9.50464 16.1013 9.4395C17.3896 9.38893 18.4259 9.60579 18.6127 9.65379C18.68 9.67136 18.7443 9.69107 18.8069 9.71422Z" fill="#BCB8BB"/>
</svg>
