<svg width="20" height="22" viewBox="0 0 20 22" fill="none" xmlns="http://www.w3.org/2000/svg">
<g clip-path="url(#clip0_5212_19932)">
<path d="M16.6663 21.3333H3.33301C2.22634 21.3333 1.33301 20.44 1.33301 19.3333V2C1.33301 0.893333 2.22634 0 3.33301 0H12.7863C13.3197 0 13.8263 0.213333 14.1997 0.586667L18.0797 4.46667C18.453 4.84 18.6663 5.34667 18.6663 5.88V19.3333C18.6663 20.44 17.773 21.3333 16.6663 21.3333ZM3.33301 1.33333C2.95967 1.33333 2.66634 1.62667 2.66634 2V19.3333C2.66634 19.7067 2.95967 20 3.33301 20H16.6663C17.0397 20 17.333 19.7067 17.333 19.3333V5.88C17.3341 5.79257 17.3168 5.70588 17.2824 5.6255C17.2479 5.54513 17.1971 5.47286 17.133 5.41333L13.253 1.53333C13.1299 1.40772 12.9622 1.33584 12.7863 1.33333H3.33301Z" fill="#FF8C59"/>
<path d="M17.84 6.66682H13.96C12.88 6.66682 12 5.78682 12 4.70682V0.826823C12 0.45349 12.2933 0.160156 12.6667 0.160156C13.04 0.160156 13.3333 0.45349 13.3333 0.826823V4.70682C13.3333 5.05349 13.6133 5.33349 13.96 5.33349H17.84C18.2133 5.33349 18.5067 5.62682 18.5067 6.00016C18.5067 6.37349 18.2133 6.66682 17.84 6.66682ZM13.3333 17.3335H6.66667C6.29333 17.3335 6 17.0402 6 16.6668C6 16.2935 6.29333 16.0002 6.66667 16.0002H13.3333C13.7067 16.0002 14 16.2935 14 16.6668C14 17.0402 13.7067 17.3335 13.3333 17.3335ZM13.3333 13.3335H6.66667C6.29333 13.3335 6 13.0402 6 12.6668C6 12.2935 6.29333 12.0002 6.66667 12.0002H13.3333C13.7067 12.0002 14 12.2935 14 12.6668C14 13.0402 13.7067 13.3335 13.3333 13.3335ZM9.33333 9.33349H6.66667C6.29333 9.33349 6 9.04016 6 8.66682C6 8.29349 6.29333 8.00016 6.66667 8.00016H9.33333C9.70667 8.00016 10 8.29349 10 8.66682C10 9.04016 9.70667 9.33349 9.33333 9.33349Z" fill="#FF8C59"/>
</g>
<defs>
<clipPath id="clip0_5212_19932">
<rect width="20" height="21.3333" fill="white"/>
</clipPath>
</defs>
</svg>
